<?xml version="1.0" encoding="UTF-8"?><svg id="Layer_1" xmlns="http://www.w3.org/2000/svg" width="25.25" height="25.25" viewBox="0 0 25.25 25.25"><g><polygon points="25.12 .12 12.65 12.62 .15 .12 25.12 .12" style="fill:#fb8072;"/><polygon points="12.65 12.62 .12 25.12 .12 .12 .15 .12 12.65 12.62" style="fill:#b3de69;"/><polygon points="25.12 25.1 25.12 25.12 .12 25.12 12.65 12.62 25.12 25.1" style="fill:#fdb462;"/><polygon points="25.12 .12 25.12 25.1 12.65 12.62 25.12 .12" style="fill:#80b1d3;"/><g><g><path d="m12.64,17.99c-2.96,0-5.38-2.41-5.38-5.37s2.41-5.38,5.38-5.38,5.38,2.41,5.38,5.38-2.41,5.37-5.38,5.37Z" style="fill:#fff;"/><path d="m12.64,8.24c2.42,0,4.37,1.96,4.37,4.37s-1.96,4.37-4.37,4.37-4.37-1.96-4.37-4.37,1.96-4.37,4.37-4.37m0-2c-3.52,0-6.37,2.86-6.37,6.37s2.86,6.37,6.37,6.37,6.37-2.86,6.37-6.37-2.86-6.37-6.37-6.37h0Z" style="fill:#fff;"/></g><g><path d="m12.64,17.36c-2.62,0-4.75-2.13-4.75-4.75s2.13-4.75,4.75-4.75,4.75,2.13,4.75,4.75-2.13,4.75-4.75,4.75Z" style="fill:#f2f2f2;"/><path d="m12.64,8.86c2.07,0,3.75,1.68,3.75,3.75s-1.68,3.75-3.75,3.75-3.75-1.68-3.75-3.75,1.68-3.75,3.75-3.75m0-2c-3.17,0-5.75,2.58-5.75,5.75s2.58,5.75,5.75,5.75,5.75-2.58,5.75-5.75-2.58-5.75-5.75-5.75h0Z" style="fill:#4d4d4d;"/></g></g></g><rect x=".12" y=".12" width="25" height="25" style="fill:none; stroke:gray; stroke-miterlimit:10; stroke-width:.25px;"/></svg>